# MagicaVoxel @ Ephtracy

# group
o 

# material
mtllib ground.mtl
usemtl palette

# normals
vn -1 0 0
vn 1 0 0
vn 0 0 1
vn 0 0 -1
vn 0 -1 0
vn 0 1 0

# texcoords
vt 0.298828 0.5
vt 0.302734 0.5
vt 0.306641 0.5
vt 0.337891 0.5
vt 0.369141 0.5
vt 0.400391 0.5

# verts
v -10 0 2
v -10 0 -1.9
v -10 1.5 2.2
v -10 1.5 2
v -10 1.5 -1.9
v -10 1.5 -2.3
v -10 1.9 2.2
v -10 1.9 2
v -10 2.5 2.2
v -10 2.5 -2.3
v 10 0 2
v 10 0 -1.9
v 10 1.5 2.2
v 10 1.5 2
v 10 1.5 -1.9
v 10 1.5 -2.3
v 10 1.9 2.2
v 10 1.9 2
v 10 2.5 2.2
v 10 2.5 -2.3
v -10 1.5 2.2
v -10 1.9 2.2
v -10 2.5 2.2
v -9.6 1.9 2.2
v -9.6 2 2.2
v -8.1 1.9 2.2
v -8.1 2 2.2
v -7.4 1.9 2.2
v -7.4 2 2.2
v -6.9 2 2.2
v -6.9 2.1 2.2
v -6.2 2 2.2
v -6.2 2.1 2.2
v -5.5 1.9 2.2
v -5.5 2 2.2
v -1.7 1.8 2.2
v -1.7 1.9 2.2
v -1.3 1.8 2.2
v -1.3 1.9 2.2
v 1.3 1.8 2.2
v 1.3 1.9 2.2
v 1.7 1.8 2.2
v 1.7 1.9 2.2
v 5.5 1.9 2.2
v 5.5 2 2.2
v 6.2 2 2.2
v 6.2 2.1 2.2
v 6.9 2 2.2
v 6.9 2.1 2.2
v 7.4 1.9 2.2
v 7.4 2 2.2
v 8.1 1.9 2.2
v 8.1 2 2.2
v 9.6 1.9 2.2
v 9.6 2 2.2
v 10 1.5 2.2
v 10 1.9 2.2
v 10 2.5 2.2
v -10 0 2
v -10 1.5 2
v -9.1 0.5 2
v -9.1 0.7 2
v -8.9 0.5 2
v -8.9 0.7 2
v -8.1 1 2
v -8.1 1.2 2
v -7.9 1 2
v -7.9 1.2 2
v -7.4 0.2 2
v -7.4 0.4 2
v -7.2 0.2 2
v -7.2 0.4 2
v -6.8 0.6 2
v -6.8 0.8 2
v -6.6 0.6 2
v -6.6 0.8 2
v -6 0.8 2
v -6 1 2
v -5.8 0.8 2
v -5.8 1 2
v -4.7 0.2 2
v -4.7 0.4 2
v -4.5 0.2 2
v -4.5 0.4 2
v -3.6 0.8 2
v -3.6 1 2
v -3.4 0.8 2
v -3.4 1 2
v -1.4 0.4 2
v -1.4 0.6 2
v -1.2 0.4 2
v -1.2 0.6 2
v -0.400001 1.2 2
v -0.400001 1.4 2
v -0.2 1.2 2
v -0.2 1.4 2
v 0.2 0.2 2
v 0.2 0.4 2
v 0.4 0.2 2
v 0.4 0.4 2
v 1.8 0.7 2
v 1.8 0.9 2
v 2 0.7 2
v 2 0.9 2
v 2.9 1.1 2
v 2.9 1.3 2
v 3.1 1.1 2
v 3.1 1.3 2
v 4.4 0.8 2
v 4.4 1 2
v 4.6 0.8 2
v 4.6 1 2
v 5.5 0.2 2
v 5.5 0.4 2
v 5.7 0.2 2
v 5.7 0.4 2
v 6.3 1 2
v 6.3 1.2 2
v 6.5 1 2
v 6.5 1.2 2
v 7.3 0.9 2
v 7.3 1.1 2
v 7.5 0.3 2
v 7.5 0.5 2
v 7.5 0.9 2
v 7.5 1.1 2
v 7.7 0.3 2
v 7.7 0.5 2
v 9.5 0.3 2
v 9.5 0.5 2
v 9.7 0.3 2
v 9.7 0.5 2
v 10 0 2
v 10 1.5 2
v -10 0 -1.9
v -10 1.5 -1.9
v 10 0 -1.9
v 10 1.5 -1.9
v -10 1.5 -2.3
v -10 2.5 -2.3
v 10 1.5 -2.3
v 10 2.5 -2.3
v -10 0 2
v 10 0 2
v -10 0 -1.9
v 10 0 -1.9
v -10 1.5 2.2
v 10 1.5 2.2
v -10 1.5 2
v 10 1.5 2
v -10 1.5 -1.9
v 10 1.5 -1.9
v -10 1.5 -2.3
v 10 1.5 -2.3
v -10 2.5 2.2
v 10 2.5 2.2
v -10 2.5 -2.3
v 10 2.5 -2.3

# faces
f 4/3/1 2/3/1 1/3/1
f 5/3/1 2/3/1 4/3/1
f 7/1/1 4/1/1 3/1/1
f 8/2/1 6/2/1 5/2/1
f 8/1/1 4/1/1 7/1/1
f 8/2/1 5/2/1 4/2/1
f 9/2/1 8/2/1 7/2/1
f 10/2/1 6/2/1 8/2/1
f 10/2/1 8/2/1 9/2/1
f 11/3/2 12/3/2 14/3/2
f 14/3/2 12/3/2 15/3/2
f 13/1/2 14/1/2 17/1/2
f 15/2/2 16/2/2 18/2/2
f 17/1/2 14/1/2 18/1/2
f 14/2/2 15/2/2 18/2/2
f 17/2/2 18/2/2 19/2/2
f 18/2/2 16/2/2 20/2/2
f 19/2/2 18/2/2 20/2/2
f 24/1/3 22/1/3 21/1/3
f 24/2/3 23/2/3 22/2/3
f 25/2/3 23/2/3 24/2/3
f 26/1/3 24/1/3 21/1/3
f 26/1/3 25/1/3 24/1/3
f 27/2/3 23/2/3 25/2/3
f 27/1/3 25/1/3 26/1/3
f 28/1/3 26/1/3 21/1/3
f 28/2/3 27/2/3 26/2/3
f 29/2/3 23/2/3 27/2/3
f 29/2/3 27/2/3 28/2/3
f 30/1/3 29/1/3 28/1/3
f 30/2/3 23/2/3 29/2/3
f 31/2/3 23/2/3 30/2/3
f 32/1/3 30/1/3 28/1/3
f 32/1/3 31/1/3 30/1/3
f 33/2/3 23/2/3 31/2/3
f 33/1/3 31/1/3 32/1/3
f 34/1/3 28/1/3 21/1/3
f 34/1/3 32/1/3 28/1/3
f 35/2/3 33/2/3 32/2/3
f 35/1/3 32/1/3 34/1/3
f 36/1/3 34/1/3 21/1/3
f 37/2/3 35/2/3 34/2/3
f 37/1/3 34/1/3 36/1/3
f 38/1/3 36/1/3 21/1/3
f 38/2/3 37/2/3 36/2/3
f 39/2/3 35/2/3 37/2/3
f 39/2/3 37/2/3 38/2/3
f 40/1/3 38/1/3 21/1/3
f 40/1/3 39/1/3 38/1/3
f 41/2/3 35/2/3 39/2/3
f 41/1/3 39/1/3 40/1/3
f 42/1/3 40/1/3 21/1/3
f 42/2/3 41/2/3 40/2/3
f 43/2/3 35/2/3 41/2/3
f 43/2/3 41/2/3 42/2/3
f 44/1/3 43/1/3 42/1/3
f 44/2/3 35/2/3 43/2/3
f 45/2/3 33/2/3 35/2/3
f 45/2/3 35/2/3 44/2/3
f 46/1/3 45/1/3 44/1/3
f 46/2/3 33/2/3 45/2/3
f 47/2/3 23/2/3 33/2/3
f 47/2/3 33/2/3 46/2/3
f 48/1/3 46/1/3 44/1/3
f 48/1/3 47/1/3 46/1/3
f 49/2/3 23/2/3 47/2/3
f 49/1/3 47/1/3 48/1/3
f 50/1/3 48/1/3 44/1/3
f 50/1/3 44/1/3 42/1/3
f 51/2/3 49/2/3 48/2/3
f 51/1/3 48/1/3 50/1/3
f 52/1/3 50/1/3 42/1/3
f 52/2/3 51/2/3 50/2/3
f 53/2/3 49/2/3 51/2/3
f 53/2/3 51/2/3 52/2/3
f 54/1/3 52/1/3 42/1/3
f 54/1/3 53/1/3 52/1/3
f 55/2/3 49/2/3 53/2/3
f 55/1/3 53/1/3 54/1/3
f 56/1/3 54/1/3 42/1/3
f 56/1/3 42/1/3 21/1/3
f 57/2/3 55/2/3 54/2/3
f 57/1/3 54/1/3 56/1/3
f 58/2/3 23/2/3 49/2/3
f 58/2/3 55/2/3 57/2/3
f 58/2/3 49/2/3 55/2/3
f 61/3/3 60/3/3 59/3/3
f 62/3/3 60/3/3 61/3/3
f 63/3/3 61/3/3 59/3/3
f 63/5/3 62/5/3 61/5/3
f 64/3/3 60/3/3 62/3/3
f 64/5/3 62/5/3 63/5/3
f 65/3/3 64/3/3 63/3/3
f 65/3/3 60/3/3 64/3/3
f 66/3/3 60/3/3 65/3/3
f 67/3/3 65/3/3 63/3/3
f 67/4/3 66/4/3 65/4/3
f 68/3/3 60/3/3 66/3/3
f 68/4/3 66/4/3 67/4/3
f 69/3/3 63/3/3 59/3/3
f 69/3/3 67/3/3 63/3/3
f 69/3/3 68/3/3 67/3/3
f 70/3/3 68/3/3 69/3/3
f 71/3/3 69/3/3 59/3/3
f 71/6/3 70/6/3 69/6/3
f 72/3/3 68/3/3 70/3/3
f 72/6/3 70/6/3 71/6/3
f 73/3/3 72/3/3 71/3/3
f 73/3/3 68/3/3 72/3/3
f 74/3/3 68/3/3 73/3/3
f 75/3/3 73/3/3 71/3/3
f 75/4/3 74/4/3 73/4/3
f 76/3/3 68/3/3 74/3/3
f 76/4/3 74/4/3 75/4/3
f 77/3/3 76/3/3 75/3/3
f 77/3/3 68/3/3 76/3/3
f 78/3/3 68/3/3 77/3/3
f 79/3/3 77/3/3 75/3/3
f 79/6/3 78/6/3 77/6/3
f 80/3/3 68/3/3 78/3/3
f 80/6/3 78/6/3 79/6/3
f 81/3/3 71/3/3 59/3/3
f 81/3/3 75/3/3 71/3/3
f 81/3/3 80/3/3 79/3/3
f 81/3/3 79/3/3 75/3/3
f 82/3/3 80/3/3 81/3/3
f 83/3/3 81/3/3 59/3/3
f 83/5/3 82/5/3 81/5/3
f 84/3/3 80/3/3 82/3/3
f 84/5/3 82/5/3 83/5/3
f 85/3/3 84/3/3 83/3/3
f 85/3/3 80/3/3 84/3/3
f 86/3/3 68/3/3 80/3/3
f 86/3/3 80/3/3 85/3/3
f 87/3/3 85/3/3 83/3/3
f 87/4/3 86/4/3 85/4/3
f 88/3/3 68/3/3 86/3/3
f 88/4/3 86/4/3 87/4/3
f 89/3/3 87/3/3 83/3/3
f 89/3/3 88/3/3 87/3/3
f 90/3/3 88/3/3 89/3/3
f 91/3/3 89/3/3 83/3/3
f 91/4/3 90/4/3 89/4/3
f 92/3/3 88/3/3 90/3/3
f 92/4/3 90/4/3 91/4/3
f 93/3/3 60/3/3 68/3/3
f 93/3/3 88/3/3 92/3/3
f 93/3/3 92/3/3 91/3/3
f 93/3/3 68/3/3 88/3/3
f 94/3/3 60/3/3 93/3/3
f 95/3/3 93/3/3 91/3/3
f 95/5/3 94/5/3 93/5/3
f 96/3/3 60/3/3 94/3/3
f 96/5/3 94/5/3 95/5/3
f 97/3/3 91/3/3 83/3/3
f 97/3/3 83/3/3 59/3/3
f 97/3/3 96/3/3 95/3/3
f 97/3/3 95/3/3 91/3/3
f 98/3/3 96/3/3 97/3/3
f 99/3/3 97/3/3 59/3/3
f 99/5/3 98/5/3 97/5/3
f 100/3/3 96/3/3 98/3/3
f 100/5/3 98/5/3 99/5/3
f 101/3/3 100/3/3 99/3/3
f 101/3/3 96/3/3 100/3/3
f 102/3/3 96/3/3 101/3/3
f 103/3/3 101/3/3 99/3/3
f 103/4/3 102/4/3 101/4/3
f 104/3/3 96/3/3 102/3/3
f 104/4/3 102/4/3 103/4/3
f 105/3/3 104/3/3 103/3/3
f 105/3/3 96/3/3 104/3/3
f 106/3/3 96/3/3 105/3/3
f 107/3/3 105/3/3 103/3/3
f 107/6/3 106/6/3 105/6/3
f 108/3/3 96/3/3 106/3/3
f 108/6/3 106/6/3 107/6/3
f 109/3/3 107/3/3 103/3/3
f 109/3/3 108/3/3 107/3/3
f 110/3/3 108/3/3 109/3/3
f 111/3/3 109/3/3 103/3/3
f 111/4/3 110/4/3 109/4/3
f 112/3/3 108/3/3 110/3/3
f 112/4/3 110/4/3 111/4/3
f 113/3/3 99/3/3 59/3/3
f 113/3/3 103/3/3 99/3/3
f 113/3/3 112/3/3 111/3/3
f 113/3/3 111/3/3 103/3/3
f 114/3/3 112/3/3 113/3/3
f 115/3/3 113/3/3 59/3/3
f 115/5/3 114/5/3 113/5/3
f 116/3/3 112/3/3 114/3/3
f 116/5/3 114/5/3 115/5/3
f 117/3/3 108/3/3 112/3/3
f 117/3/3 112/3/3 116/3/3
f 117/3/3 116/3/3 115/3/3
f 118/3/3 108/3/3 117/3/3
f 119/3/3 117/3/3 115/3/3
f 119/5/3 118/5/3 117/5/3
f 120/3/3 108/3/3 118/3/3
f 120/5/3 118/5/3 119/5/3
f 121/3/3 119/3/3 115/3/3
f 121/3/3 120/3/3 119/3/3
f 122/3/3 120/3/3 121/3/3
f 123/3/3 121/3/3 115/3/3
f 124/3/3 121/3/3 123/3/3
f 125/4/3 122/4/3 121/4/3
f 125/3/3 121/3/3 124/3/3
f 126/3/3 120/3/3 122/3/3
f 126/4/3 122/4/3 125/4/3
f 127/6/3 124/6/3 123/6/3
f 127/3/3 123/3/3 115/3/3
f 128/3/3 125/3/3 124/3/3
f 128/6/3 124/6/3 127/6/3
f 128/3/3 126/3/3 125/3/3
f 129/3/3 127/3/3 115/3/3
f 129/3/3 128/3/3 127/3/3
f 130/3/3 126/3/3 128/3/3
f 130/3/3 128/3/3 129/3/3
f 131/3/3 129/3/3 115/3/3
f 131/4/3 130/4/3 129/4/3
f 132/3/3 126/3/3 130/3/3
f 132/4/3 130/4/3 131/4/3
f 133/3/3 115/3/3 59/3/3
f 133/3/3 131/3/3 115/3/3
f 133/3/3 132/3/3 131/3/3
f 134/3/3 60/3/3 96/3/3
f 134/3/3 132/3/3 133/3/3
f 134/3/3 126/3/3 132/3/3
f 134/3/3 120/3/3 126/3/3
f 134/3/3 108/3/3 120/3/3
f 134/3/3 96/3/3 108/3/3
f 135/3/4 136/3/4 137/3/4
f 137/3/4 136/3/4 138/3/4
f 139/2/4 140/2/4 141/2/4
f 141/2/4 140/2/4 142/2/4
f 145/3/5 144/3/5 143/3/5
f 146/3/5 144/3/5 145/3/5
f 149/1/5 148/1/5 147/1/5
f 150/1/5 148/1/5 149/1/5
f 153/2/5 152/2/5 151/2/5
f 154/2/5 152/2/5 153/2/5
f 155/2/6 156/2/6 157/2/6
f 157/2/6 156/2/6 158/2/6
